<mxfile host="app.diagrams.net" agent="Mozilla/5.0 (Windows NT 10.0; Win64; x64; rv:131.0) Gecko/20100101 Firefox/131.0" version="24.7.17">
  <diagram name="Página-1" id="aHqKlmtBxzy5Hgxs5CKW">
    <mxGraphModel grid="1" page="1" gridSize="10" guides="1" tooltips="1" connect="1" arrows="1" fold="1" pageScale="1" pageWidth="827" pageHeight="1169" math="0" shadow="0">
      <root>
        <mxCell id="0" />
        <mxCell id="1" parent="0" />
        <mxCell id="MnFeLlkG_mflkOBrZYcj-13" style="edgeStyle=orthogonalEdgeStyle;rounded=0;orthogonalLoop=1;jettySize=auto;html=1;exitX=0.5;exitY=1;exitDx=0;exitDy=0;entryX=0;entryY=0;entryDx=0;entryDy=0;" edge="1" parent="1" source="MnFeLlkG_mflkOBrZYcj-1" target="MnFeLlkG_mflkOBrZYcj-11">
          <mxGeometry relative="1" as="geometry" />
        </mxCell>
        <mxCell id="MnFeLlkG_mflkOBrZYcj-1" value="&lt;font style=&quot;font-size: 17px;&quot;&gt;Apellidos&lt;/font&gt;" style="ellipse;whiteSpace=wrap;html=1;aspect=fixed;fillColor=#dae8fc;strokeColor=#6c8ebf;" vertex="1" parent="1">
          <mxGeometry x="115" y="304.5" width="75" height="75" as="geometry" />
        </mxCell>
        <mxCell id="MnFeLlkG_mflkOBrZYcj-12" style="edgeStyle=orthogonalEdgeStyle;rounded=0;orthogonalLoop=1;jettySize=auto;html=1;exitX=0.5;exitY=1;exitDx=0;exitDy=0;entryX=0;entryY=0.5;entryDx=0;entryDy=0;" edge="1" parent="1" source="MnFeLlkG_mflkOBrZYcj-2" target="MnFeLlkG_mflkOBrZYcj-11">
          <mxGeometry relative="1" as="geometry" />
        </mxCell>
        <mxCell id="MnFeLlkG_mflkOBrZYcj-2" value="&lt;font style=&quot;font-size: 17px;&quot;&gt;Nombre&lt;/font&gt;" style="ellipse;whiteSpace=wrap;html=1;aspect=fixed;fillColor=#dae8fc;strokeColor=#6c8ebf;" vertex="1" parent="1">
          <mxGeometry x="40" y="302" width="75" height="75" as="geometry" />
        </mxCell>
        <mxCell id="MnFeLlkG_mflkOBrZYcj-5" value="&lt;font style=&quot;font-size: 17px;&quot;&gt;DNI&lt;/font&gt;" style="ellipse;whiteSpace=wrap;html=1;aspect=fixed;" vertex="1" parent="1">
          <mxGeometry x="190" y="302" width="80" height="80" as="geometry" />
        </mxCell>
        <mxCell id="MnFeLlkG_mflkOBrZYcj-15" style="edgeStyle=orthogonalEdgeStyle;rounded=0;orthogonalLoop=1;jettySize=auto;html=1;exitX=0.5;exitY=1;exitDx=0;exitDy=0;entryX=1;entryY=0;entryDx=0;entryDy=0;" edge="1" parent="1" source="MnFeLlkG_mflkOBrZYcj-7" target="MnFeLlkG_mflkOBrZYcj-11">
          <mxGeometry relative="1" as="geometry" />
        </mxCell>
        <mxCell id="MnFeLlkG_mflkOBrZYcj-7" value="&lt;font style=&quot;font-size: 17px;&quot;&gt;Dirección&lt;/font&gt;" style="ellipse;whiteSpace=wrap;html=1;aspect=fixed;fillColor=#dae8fc;strokeColor=#6c8ebf;" vertex="1" parent="1">
          <mxGeometry x="270" y="302" width="80" height="80" as="geometry" />
        </mxCell>
        <mxCell id="MnFeLlkG_mflkOBrZYcj-16" style="edgeStyle=orthogonalEdgeStyle;rounded=0;orthogonalLoop=1;jettySize=auto;html=1;exitX=0.5;exitY=1;exitDx=0;exitDy=0;entryX=1;entryY=0.5;entryDx=0;entryDy=0;" edge="1" parent="1" source="MnFeLlkG_mflkOBrZYcj-8" target="MnFeLlkG_mflkOBrZYcj-11">
          <mxGeometry relative="1" as="geometry" />
        </mxCell>
        <mxCell id="MnFeLlkG_mflkOBrZYcj-8" value="&lt;font style=&quot;font-size: 17px;&quot;&gt;Fecha Nac.&lt;/font&gt;" style="ellipse;whiteSpace=wrap;html=1;aspect=fixed;fillColor=#dae8fc;strokeColor=#6c8ebf;" vertex="1" parent="1">
          <mxGeometry x="350" y="302" width="80" height="80" as="geometry" />
        </mxCell>
        <mxCell id="MnFeLlkG_mflkOBrZYcj-19" style="edgeStyle=orthogonalEdgeStyle;rounded=0;orthogonalLoop=1;jettySize=auto;html=1;exitX=1;exitY=0.5;exitDx=0;exitDy=0;entryX=1;entryY=0;entryDx=0;entryDy=0;" edge="1" parent="1" source="MnFeLlkG_mflkOBrZYcj-9" target="MnFeLlkG_mflkOBrZYcj-18">
          <mxGeometry relative="1" as="geometry" />
        </mxCell>
        <mxCell id="MnFeLlkG_mflkOBrZYcj-9" value="&lt;font style=&quot;font-size: 22px;&quot;&gt;Compra&lt;/font&gt;" style="rhombus;whiteSpace=wrap;html=1;" vertex="1" parent="1">
          <mxGeometry x="140" y="622" width="225" height="70" as="geometry" />
        </mxCell>
        <mxCell id="MnFeLlkG_mflkOBrZYcj-17" style="edgeStyle=orthogonalEdgeStyle;rounded=0;orthogonalLoop=1;jettySize=auto;html=1;exitX=0;exitY=1;exitDx=0;exitDy=0;entryX=0;entryY=0.5;entryDx=0;entryDy=0;" edge="1" parent="1" source="MnFeLlkG_mflkOBrZYcj-11" target="MnFeLlkG_mflkOBrZYcj-9">
          <mxGeometry relative="1" as="geometry" />
        </mxCell>
        <mxCell id="MnFeLlkG_mflkOBrZYcj-11" value="&lt;font style=&quot;font-size: 28px;&quot;&gt;Clientes&lt;/font&gt;" style="rounded=0;whiteSpace=wrap;html=1;" vertex="1" parent="1">
          <mxGeometry x="110" y="452" width="230" height="90" as="geometry" />
        </mxCell>
        <mxCell id="MnFeLlkG_mflkOBrZYcj-14" style="edgeStyle=orthogonalEdgeStyle;rounded=0;orthogonalLoop=1;jettySize=auto;html=1;exitX=0.5;exitY=1;exitDx=0;exitDy=0;" edge="1" parent="1" source="MnFeLlkG_mflkOBrZYcj-5">
          <mxGeometry relative="1" as="geometry">
            <mxPoint x="230" y="450" as="targetPoint" />
          </mxGeometry>
        </mxCell>
        <mxCell id="MnFeLlkG_mflkOBrZYcj-27" style="edgeStyle=orthogonalEdgeStyle;rounded=0;orthogonalLoop=1;jettySize=auto;html=1;exitX=1;exitY=0.5;exitDx=0;exitDy=0;entryX=0;entryY=0.5;entryDx=0;entryDy=0;" edge="1" parent="1" source="MnFeLlkG_mflkOBrZYcj-18" target="MnFeLlkG_mflkOBrZYcj-26">
          <mxGeometry relative="1" as="geometry" />
        </mxCell>
        <mxCell id="MnFeLlkG_mflkOBrZYcj-18" value="&lt;font style=&quot;font-size: 28px;&quot;&gt;Productos&lt;/font&gt;" style="rounded=0;whiteSpace=wrap;html=1;" vertex="1" parent="1">
          <mxGeometry x="115" y="772" width="275" height="90" as="geometry" />
        </mxCell>
        <mxCell id="MnFeLlkG_mflkOBrZYcj-23" style="edgeStyle=orthogonalEdgeStyle;rounded=0;orthogonalLoop=1;jettySize=auto;html=1;exitX=0.5;exitY=0;exitDx=0;exitDy=0;entryX=0;entryY=1;entryDx=0;entryDy=0;" edge="1" parent="1" source="MnFeLlkG_mflkOBrZYcj-20" target="MnFeLlkG_mflkOBrZYcj-18">
          <mxGeometry relative="1" as="geometry">
            <mxPoint x="90" y="872" as="targetPoint" />
          </mxGeometry>
        </mxCell>
        <mxCell id="MnFeLlkG_mflkOBrZYcj-20" value="&lt;font style=&quot;font-size: 17px;&quot;&gt;Nombre&lt;/font&gt;" style="ellipse;whiteSpace=wrap;html=1;aspect=fixed;fillColor=#dae8fc;strokeColor=#6c8ebf;" vertex="1" parent="1">
          <mxGeometry x="100" y="922" width="75" height="75" as="geometry" />
        </mxCell>
        <mxCell id="MnFeLlkG_mflkOBrZYcj-24" style="edgeStyle=orthogonalEdgeStyle;rounded=0;orthogonalLoop=1;jettySize=auto;html=1;exitX=0.5;exitY=0;exitDx=0;exitDy=0;" edge="1" parent="1" source="MnFeLlkG_mflkOBrZYcj-21">
          <mxGeometry relative="1" as="geometry">
            <mxPoint x="252.5" y="862.0000000000002" as="targetPoint" />
          </mxGeometry>
        </mxCell>
        <mxCell id="MnFeLlkG_mflkOBrZYcj-21" value="&lt;font style=&quot;font-size: 17px;&quot;&gt;Código&lt;/font&gt;" style="ellipse;whiteSpace=wrap;html=1;aspect=fixed;" vertex="1" parent="1">
          <mxGeometry x="215" y="922" width="75" height="75" as="geometry" />
        </mxCell>
        <mxCell id="MnFeLlkG_mflkOBrZYcj-25" style="edgeStyle=orthogonalEdgeStyle;rounded=0;orthogonalLoop=1;jettySize=auto;html=1;exitX=0.5;exitY=0;exitDx=0;exitDy=0;" edge="1" parent="1" source="MnFeLlkG_mflkOBrZYcj-22">
          <mxGeometry relative="1" as="geometry">
            <mxPoint x="390" y="862.0000000000002" as="targetPoint" />
          </mxGeometry>
        </mxCell>
        <mxCell id="MnFeLlkG_mflkOBrZYcj-22" value="&lt;font style=&quot;font-size: 17px;&quot;&gt;Precio /u&lt;br&gt;&lt;/font&gt;" style="ellipse;whiteSpace=wrap;html=1;aspect=fixed;fillColor=#dae8fc;strokeColor=#6c8ebf;" vertex="1" parent="1">
          <mxGeometry x="330" y="922" width="75" height="75" as="geometry" />
        </mxCell>
        <mxCell id="MnFeLlkG_mflkOBrZYcj-28" style="edgeStyle=orthogonalEdgeStyle;rounded=0;orthogonalLoop=1;jettySize=auto;html=1;exitX=1;exitY=0.5;exitDx=0;exitDy=0;" edge="1" parent="1" source="MnFeLlkG_mflkOBrZYcj-26">
          <mxGeometry relative="1" as="geometry">
            <mxPoint x="580" y="930" as="targetPoint" />
          </mxGeometry>
        </mxCell>
        <mxCell id="MnFeLlkG_mflkOBrZYcj-26" value="&lt;font style=&quot;font-size: 22px;&quot;&gt;Suministra&lt;/font&gt;" style="rhombus;whiteSpace=wrap;html=1;" vertex="1" parent="1">
          <mxGeometry x="470" y="782" width="225" height="70" as="geometry" />
        </mxCell>
        <mxCell id="MnFeLlkG_mflkOBrZYcj-29" value="&lt;font style=&quot;font-size: 28px;&quot;&gt;Proveedores&lt;/font&gt;" style="rounded=0;whiteSpace=wrap;html=1;" vertex="1" parent="1">
          <mxGeometry x="445" y="932" width="275" height="90" as="geometry" />
        </mxCell>
        <mxCell id="MnFeLlkG_mflkOBrZYcj-35" style="edgeStyle=orthogonalEdgeStyle;rounded=0;orthogonalLoop=1;jettySize=auto;html=1;exitX=0.5;exitY=0;exitDx=0;exitDy=0;entryX=0.018;entryY=0.978;entryDx=0;entryDy=0;entryPerimeter=0;" edge="1" parent="1" source="MnFeLlkG_mflkOBrZYcj-30" target="MnFeLlkG_mflkOBrZYcj-29">
          <mxGeometry relative="1" as="geometry">
            <mxPoint x="450" y="1032.0000000000002" as="targetPoint" />
          </mxGeometry>
        </mxCell>
        <mxCell id="MnFeLlkG_mflkOBrZYcj-30" value="&lt;font style=&quot;font-size: 17px;&quot;&gt;Nombre&lt;/font&gt;" style="ellipse;whiteSpace=wrap;html=1;aspect=fixed;fillColor=#dae8fc;strokeColor=#6c8ebf;" vertex="1" parent="1">
          <mxGeometry x="445" y="1072" width="75" height="75" as="geometry" />
        </mxCell>
        <mxCell id="MnFeLlkG_mflkOBrZYcj-36" style="edgeStyle=orthogonalEdgeStyle;rounded=0;orthogonalLoop=1;jettySize=auto;html=1;exitX=0.5;exitY=0;exitDx=0;exitDy=0;entryX=0.481;entryY=1.002;entryDx=0;entryDy=0;entryPerimeter=0;" edge="1" parent="1" source="MnFeLlkG_mflkOBrZYcj-31" target="MnFeLlkG_mflkOBrZYcj-29">
          <mxGeometry relative="1" as="geometry">
            <mxPoint x="577.0769230769231" y="1032.0000000000002" as="targetPoint" />
          </mxGeometry>
        </mxCell>
        <mxCell id="MnFeLlkG_mflkOBrZYcj-31" value="&lt;font style=&quot;font-size: 17px;&quot;&gt;NIF&lt;/font&gt;" style="ellipse;whiteSpace=wrap;html=1;aspect=fixed;" vertex="1" parent="1">
          <mxGeometry x="540" y="1072" width="75" height="75" as="geometry" />
        </mxCell>
        <mxCell id="MnFeLlkG_mflkOBrZYcj-39" style="edgeStyle=orthogonalEdgeStyle;rounded=0;orthogonalLoop=1;jettySize=auto;html=1;exitX=0.5;exitY=0;exitDx=0;exitDy=0;entryX=0.959;entryY=0.973;entryDx=0;entryDy=0;entryPerimeter=0;" edge="1" parent="1" source="MnFeLlkG_mflkOBrZYcj-32" target="MnFeLlkG_mflkOBrZYcj-29">
          <mxGeometry relative="1" as="geometry">
            <mxPoint x="710" y="1032.0000000000002" as="targetPoint" />
          </mxGeometry>
        </mxCell>
        <mxCell id="MnFeLlkG_mflkOBrZYcj-32" value="&lt;font style=&quot;font-size: 17px;&quot;&gt;Dirección&lt;/font&gt;" style="ellipse;whiteSpace=wrap;html=1;aspect=fixed;fillColor=#dae8fc;strokeColor=#6c8ebf;" vertex="1" parent="1">
          <mxGeometry x="640" y="1072" width="80" height="80" as="geometry" />
        </mxCell>
        <mxCell id="MnFeLlkG_mflkOBrZYcj-40" value="&lt;font style=&quot;font-size: 25px;&quot;&gt;1:N&lt;/font&gt;" style="text;html=1;align=center;verticalAlign=middle;resizable=0;points=[];autosize=1;strokeColor=none;fillColor=none;fontColor=#FF5521;" vertex="1" parent="1">
          <mxGeometry x="550" y="727" width="60" height="40" as="geometry" />
        </mxCell>
        <mxCell id="MnFeLlkG_mflkOBrZYcj-41" value="&lt;font style=&quot;font-size: 25px;&quot;&gt;N:M&lt;/font&gt;" style="text;html=1;align=center;verticalAlign=middle;resizable=0;points=[];autosize=1;strokeColor=none;fillColor=none;fontColor=#FF5521;" vertex="1" parent="1">
          <mxGeometry x="215" y="575" width="70" height="40" as="geometry" />
        </mxCell>
        <mxCell id="Ueu6Cf9g71ccBuJbwJl0-8" style="edgeStyle=orthogonalEdgeStyle;rounded=0;orthogonalLoop=1;jettySize=auto;html=1;exitX=0.5;exitY=1;exitDx=0;exitDy=0;" edge="1" parent="1" source="Ueu6Cf9g71ccBuJbwJl0-1">
          <mxGeometry relative="1" as="geometry">
            <mxPoint x="310" y="300" as="targetPoint" />
          </mxGeometry>
        </mxCell>
        <mxCell id="Ueu6Cf9g71ccBuJbwJl0-1" value="&lt;font style=&quot;font-size: 17px;&quot;&gt;Nombre&lt;/font&gt;" style="ellipse;whiteSpace=wrap;html=1;aspect=fixed;fillColor=#dae8fc;strokeColor=#6c8ebf;" vertex="1" parent="1">
          <mxGeometry x="236" y="130" width="80" height="80" as="geometry" />
        </mxCell>
        <mxCell id="Ueu6Cf9g71ccBuJbwJl0-6" style="edgeStyle=orthogonalEdgeStyle;rounded=0;orthogonalLoop=1;jettySize=auto;html=1;exitX=0.5;exitY=1;exitDx=0;exitDy=0;" edge="1" parent="1" source="Ueu6Cf9g71ccBuJbwJl0-2">
          <mxGeometry relative="1" as="geometry">
            <mxPoint x="310" y="300" as="targetPoint" />
          </mxGeometry>
        </mxCell>
        <mxCell id="Ueu6Cf9g71ccBuJbwJl0-2" value="&lt;font style=&quot;font-size: 17px;&quot;&gt;Número&lt;/font&gt;" style="ellipse;whiteSpace=wrap;html=1;aspect=fixed;fillColor=#dae8fc;strokeColor=#6c8ebf;" vertex="1" parent="1">
          <mxGeometry x="316" y="130" width="80" height="80" as="geometry" />
        </mxCell>
        <mxCell id="Ueu6Cf9g71ccBuJbwJl0-5" style="edgeStyle=orthogonalEdgeStyle;rounded=0;orthogonalLoop=1;jettySize=auto;html=1;exitX=0.5;exitY=1;exitDx=0;exitDy=0;entryX=0.5;entryY=0;entryDx=0;entryDy=0;" edge="1" parent="1" source="Ueu6Cf9g71ccBuJbwJl0-3" target="MnFeLlkG_mflkOBrZYcj-7">
          <mxGeometry relative="1" as="geometry" />
        </mxCell>
        <mxCell id="Ueu6Cf9g71ccBuJbwJl0-3" value="&lt;font style=&quot;font-size: 17px;&quot;&gt;CP&lt;/font&gt;" style="ellipse;whiteSpace=wrap;html=1;aspect=fixed;fillColor=#dae8fc;strokeColor=#6c8ebf;" vertex="1" parent="1">
          <mxGeometry x="396" y="130" width="80" height="80" as="geometry" />
        </mxCell>
        <mxCell id="Ueu6Cf9g71ccBuJbwJl0-7" style="edgeStyle=orthogonalEdgeStyle;rounded=0;orthogonalLoop=1;jettySize=auto;html=1;exitX=0.5;exitY=1;exitDx=0;exitDy=0;" edge="1" parent="1" source="Ueu6Cf9g71ccBuJbwJl0-4">
          <mxGeometry relative="1" as="geometry">
            <mxPoint x="310" y="300" as="targetPoint" />
          </mxGeometry>
        </mxCell>
        <mxCell id="Ueu6Cf9g71ccBuJbwJl0-4" value="&lt;font style=&quot;font-size: 17px;&quot;&gt;Tipo Vía&lt;/font&gt;" style="ellipse;whiteSpace=wrap;html=1;aspect=fixed;fillColor=#dae8fc;strokeColor=#6c8ebf;" vertex="1" parent="1">
          <mxGeometry x="156" y="130" width="80" height="80" as="geometry" />
        </mxCell>
        <mxCell id="Ueu6Cf9g71ccBuJbwJl0-9" value="Suministra" style="text;html=1;align=center;verticalAlign=middle;resizable=0;points=[];autosize=1;strokeColor=none;fillColor=none;fontColor=#97D077;" vertex="1" parent="1">
          <mxGeometry x="391" y="782" width="80" height="30" as="geometry" />
        </mxCell>
        <mxCell id="Ueu6Cf9g71ccBuJbwJl0-10" value="&lt;div&gt;Es suministrado&lt;/div&gt;" style="text;html=1;align=center;verticalAlign=middle;resizable=0;points=[];autosize=1;strokeColor=none;fillColor=none;fontColor=#97D077;" vertex="1" parent="1">
          <mxGeometry x="600" y="892" width="110" height="30" as="geometry" />
        </mxCell>
        <mxCell id="Ueu6Cf9g71ccBuJbwJl0-11" value="&lt;div&gt;Es comprado&lt;/div&gt;" style="text;html=1;align=center;verticalAlign=middle;resizable=0;points=[];autosize=1;strokeColor=none;fillColor=none;fontColor=#97D077;" vertex="1" parent="1">
          <mxGeometry x="10" y="570" width="100" height="30" as="geometry" />
        </mxCell>
        <mxCell id="Ueu6Cf9g71ccBuJbwJl0-12" value="Compra" style="text;html=1;align=center;verticalAlign=middle;resizable=0;points=[];autosize=1;strokeColor=none;fillColor=none;fontColor=#97D077;" vertex="1" parent="1">
          <mxGeometry x="396" y="670" width="70" height="30" as="geometry" />
        </mxCell>
        <mxCell id="Ueu6Cf9g71ccBuJbwJl0-13" value="(1.n)" style="text;html=1;align=center;verticalAlign=middle;resizable=0;points=[];autosize=1;strokeColor=none;fillColor=none;" vertex="1" parent="1">
          <mxGeometry x="106" y="542" width="50" height="30" as="geometry" />
        </mxCell>
        <mxCell id="Ueu6Cf9g71ccBuJbwJl0-14" value="(1.n)" style="text;html=1;align=center;verticalAlign=middle;resizable=0;points=[];autosize=1;strokeColor=none;fillColor=none;" vertex="1" parent="1">
          <mxGeometry x="340" y="737" width="50" height="30" as="geometry" />
        </mxCell>
        <mxCell id="Ueu6Cf9g71ccBuJbwJl0-15" value="(1.n)" style="text;html=1;align=center;verticalAlign=middle;resizable=0;points=[];autosize=1;strokeColor=none;fillColor=none;" vertex="1" parent="1">
          <mxGeometry x="389" y="832" width="50" height="30" as="geometry" />
        </mxCell>
        <mxCell id="Ueu6Cf9g71ccBuJbwJl0-16" value="(1.n)" style="text;html=1;align=center;verticalAlign=middle;resizable=0;points=[];autosize=1;strokeColor=none;fillColor=none;" vertex="1" parent="1">
          <mxGeometry x="445" y="902" width="50" height="30" as="geometry" />
        </mxCell>
      </root>
    </mxGraphModel>
  </diagram>
</mxfile>
